<svg id="Ebene_1" data-name="Ebene 1" xmlns="http://www.w3.org/2000/svg" width="48" height="48" viewBox="0 0 48 48"><defs><style>.cls-1{fill:none;stroke:#8da27f;stroke-width:1.5px;}</style></defs><title>icon_bestebioqualitaet</title><path class="cls-1" d="M12.5,44.4a11.76,11.76,0,0,1-8.6-5.9c-3.7-6.3.9-23,.9-23s2,.5,4.7,1.5"/><path class="cls-1" d="M39.5,17c2.7-.9,4.7-1.5,4.7-1.5s4.6,16.7.9,23a11.76,11.76,0,0,1-8.6,5.9"/><path class="cls-1" d="M10.5,29.8c0-8.4,14-25.3,14-25.3s14,16.9,14,25.3c0,8.7-7.2,13.7-14,13.7S10.5,38.5,10.5,29.8Z"/></svg>