<svg id="Ebene_1" data-name="Ebene 1" xmlns="http://www.w3.org/2000/svg" width="48" height="48" viewBox="0 0 48 48"><defs><style>.cls-1{opacity:0.5;}.cls-2{fill:#8da27f;}.cls-3{fill:none;stroke:#8da27f;stroke-linecap:square;stroke-width:1.5px;}</style></defs><title>icon_bioverfuegbarkeit</title><g class="cls-1"><path class="cls-2" d="M4.9,39.6s11.2-2.4,14.3-19.2c.2-1.3.6-3.2,1.1-5.1,1-3.8,2.6-7.8,5.1-8.1,2.5.3,4.1,4.3,5.1,8.1.5,1.9.9,3.8,1.1,5.1C34.8,37.2,46,39.6,46,39.6Z"/></g><polyline class="cls-3" points="4.9 7.2 4.9 39.6 46 39.6"/><path class="cls-3" d="M4.9,39.6s11.2-2.4,14.3-19.2c.2-1.3.6-3.2,1.1-5.1,1-3.8,2.6-7.8,5.1-8.1,2.5.3,4.1,4.3,5.1,8.1.5,1.9.9,3.8,1.1,5.1C34.8,37.2,46,39.6,46,39.6Z"/><line class="cls-3" x1="2.2" y1="7.2" x2="4.9" y2="7.2"/><line class="cls-3" x1="2.2" y1="39.6" x2="4.9" y2="39.6"/><line class="cls-3" x1="2.2" y1="23.4" x2="4.9" y2="23.4"/><line class="cls-3" x1="4.9" y1="42.3" x2="4.9" y2="39.6"/><line class="cls-3" x1="46" y1="42.3" x2="46" y2="39.6"/><line class="cls-3" x1="25.4" y1="42.3" x2="25.4" y2="39.6"/></svg>