<svg id="Ebene_1" data-name="Ebene 1" xmlns="http://www.w3.org/2000/svg" width="50" height="50" viewBox="0 0 50 50"><defs><style>.cls-1{fill:none;stroke:#8da27f;stroke-width:1.5px;}</style></defs><title>icon_plant</title><g id="weed"><g id="Group"><path id="Path" class="cls-1" d="M21.25,20.25a32.47,32.47,0,0,1,4-15,32.47,32.47,0,0,1,4,15,32.47,32.47,0,0,1-4,15A32.47,32.47,0,0,1,21.25,20.25Z"/><path id="Path-2" data-name="Path" class="cls-1" d="M36.05,28.15a19.5,19.5,0,0,1,9.1-4.8,20,20,0,0,1-4.8,9.1,18.46,18.46,0,0,1-9.1,4.8A20,20,0,0,1,36.05,28.15Z"/><path id="Path-3" data-name="Path" class="cls-1" d="M38.25,41.25a13,13,0,0,1,7.6,3,13,13,0,0,1-7.6,3,13,13,0,0,1-7.6-3A13,13,0,0,1,38.25,41.25Z"/><path id="Path-4" data-name="Path" class="cls-1" d="M14.45,28.15a19.5,19.5,0,0,0-9.1-4.8,20,20,0,0,0,4.8,9.1,18.46,18.46,0,0,0,9.1,4.8A20,20,0,0,0,14.45,28.15Z"/><path id="Path-5" data-name="Path" class="cls-1" d="M12.25,41.25a13,13,0,0,0-7.6,3,13,13,0,0,0,7.6,3,13,13,0,0,0,7.6-3A13,13,0,0,0,12.25,41.25Z"/></g></g></svg>