<?xml version="1.0" encoding="utf-8"?>
<svg width="24px" height="24px" viewBox="0 0 24 24" version="1.1" xmlns:xlink="http://www.w3.org/1999/xlink" xmlns="http://www.w3.org/2000/svg">
  <desc>Created with Lunacy</desc>
  <g id="logo-instagram">
    <path d="M0 0L24 0L24 24L0 24L0 0Z" id="Rectangle" fill="none" stroke="none" />
    <g id="Group">
      <path d="M7.052 0.072C8.332 0.014 8.741 0 12 0C15.259 0 15.668 0.014 16.948 0.072C18.898 0.161 20.611 0.639 21.986 2.014C23.361 3.389 23.839 5.102 23.928 7.052C23.986 8.332 24 8.741 24 12C24 15.259 23.986 15.668 23.928 16.948C23.839 18.898 23.361 20.611 21.986 21.986C20.611 23.361 18.898 23.839 16.948 23.928C15.668 23.986 15.259 24 12 24C8.741 24 8.332 23.986 7.052 23.928C5.102 23.839 3.389 23.361 2.014 21.986C0.639 20.611 0.161 18.898 0.072 16.948C0.014 15.668 0 15.259 0 12C0 8.741 0.014 8.332 0.072 7.052C0.161 5.102 0.639 3.389 2.014 2.014C3.389 0.639 5.102 0.161 7.052 0.072ZM16.849 2.232C15.584 2.174 15.204 2.162 12 2.162C8.796 2.162 8.416 2.174 7.151 2.232C5.785 2.294 4.518 2.568 3.543 3.543C2.568 4.518 2.294 5.785 2.232 7.151C2.174 8.416 2.162 8.796 2.162 12C2.162 15.204 2.174 15.584 2.232 16.849C2.294 18.215 2.568 19.482 3.543 20.457C4.518 21.432 5.785 21.706 7.151 21.768C8.416 21.826 8.796 21.838 12 21.838C15.204 21.838 15.584 21.826 16.849 21.768C18.215 21.706 19.482 21.432 20.457 20.457C21.432 19.482 21.706 18.215 21.768 16.849C21.826 15.584 21.838 15.204 21.838 12C21.838 8.796 21.826 8.416 21.768 7.151C21.706 5.785 21.432 4.518 20.457 3.543C19.482 2.568 18.215 2.294 16.849 2.232Z" id="Shape" fill="#2A2A33" fill-rule="evenodd" stroke="none" />
      <path d="M0 6.162C0 2.759 2.759 0 6.162 0C9.565 0 12.324 2.759 12.324 6.162C12.324 9.565 9.565 12.324 6.162 12.324C2.759 12.324 0 9.565 0 6.162ZM2.162 6.162C2.162 8.371 3.953 10.162 6.162 10.162C8.371 10.162 10.162 8.371 10.162 6.162C10.162 3.953 8.371 2.162 6.162 2.162C3.953 2.162 2.162 3.953 2.162 6.162Z" transform="translate(5.838 5.838)" id="Shape" fill="#2A2A33" fill-rule="evenodd" stroke="none" />
      <path d="M1.44 2.88C2.23529 2.88 2.88 2.23529 2.88 1.44C2.88 0.64471 2.23529 0 1.44 0C0.64471 0 0 0.64471 0 1.44C0 2.23529 0.64471 2.88 1.44 2.88Z" transform="translate(16.966 4.154)" id="Oval" fill="#2A2A33" stroke="none" />
    </g>
  </g>
</svg>