<?xml version="1.0" encoding="utf-8"?>
<!-- Generator: Adobe Illustrator 22.0.1, SVG Export Plug-In . SVG Version: 6.00 Build 0)  -->
<svg version="1.1" id="Ebene_1" xmlns="http://www.w3.org/2000/svg" xmlns:xlink="http://www.w3.org/1999/xlink" x="0px" y="0px"
	 viewBox="0 0 22 22" style="enable-background:new 0 0 22 22;" xml:space="preserve">
<style type="text/css">
	.st0{fill:#FFFFFF;}
</style>
<path class="st0" d="M11,20.5c-0.3,0-0.6-0.1-0.9-0.3c-0.9-0.8-1.7-1.5-2.5-2.2l0,0c-2.2-1.9-4.1-3.5-5.5-5.1C0.7,11.1,0,9.4,0,7.6
	c0-1.8,0.6-3.5,1.7-4.7C2.9,1.7,4.4,1,6.1,1c1.3,0,2.4,0.4,3.5,1.2c0.5,0.4,1,0.9,1.4,1.5c0.4-0.6,0.9-1.1,1.4-1.5
	c1-0.8,2.2-1.2,3.5-1.2c1.7,0,3.3,0.7,4.4,1.9C21.4,4.1,22,5.8,22,7.6c0,1.9-0.7,3.6-2.2,5.4c-1.3,1.6-3.2,3.2-5.5,5.1
	c-0.8,0.6-1.6,1.4-2.5,2.2C11.6,20.4,11.3,20.5,11,20.5z M6.1,2.3c-1.3,0-2.6,0.5-3.5,1.5c-0.9,1-1.4,2.3-1.4,3.8
	c0,1.6,0.6,3,1.9,4.5c1.3,1.5,3.1,3.1,5.3,5l0,0c0.8,0.6,1.6,1.4,2.5,2.2c0.9-0.8,1.8-1.5,2.5-2.2c2.2-1.8,4-3.4,5.3-5
	c1.3-1.6,1.9-3,1.9-4.5c0-1.5-0.5-2.8-1.4-3.8c-0.9-1-2.1-1.5-3.5-1.5c-1,0-1.9,0.3-2.7,0.9c-0.7,0.5-1.2,1.2-1.5,1.7
	c-0.1,0.2-0.4,0.4-0.7,0.4s-0.6-0.1-0.7-0.4C10,4.4,9.5,3.7,8.8,3.2C8,2.6,7.1,2.3,6.1,2.3z"/>
</svg>
