<?xml version="1.0" encoding="utf-8"?>
<!-- Generator: Adobe Illustrator 24.3.0, SVG Export Plug-In . SVG Version: 6.00 Build 0)  -->
<svg version="1.1" id="Ebene_1" xmlns="http://www.w3.org/2000/svg" xmlns:xlink="http://www.w3.org/1999/xlink" x="0px" y="0px"
	 width="1000px" height="1000px" viewBox="0 0 1000 1000" style="enable-background:new 0 0 1000 1000;" xml:space="preserve">
<style type="text/css">
	.st0{clip-path:url(#SVGID_2_);}
	.st1{fill:#FF856D;}
	.st2{fill:#FFFFFF;}
</style>
<g>
	<g>
		<g>
			<g>
				<defs>
					<rect id="SVGID_1_" y="0" width="1000" height="1000"/>
				</defs>
				<clipPath id="SVGID_2_">
					<use xlink:href="#SVGID_1_"  style="overflow:visible;"/>
				</clipPath>
				<g class="st0">
					<path class="st1" d="M500,1000c276.1,0,500-223.9,500-500C1000,223.8,776.1,0,500,0S0,223.8,0,500C0,776.1,223.9,1000,500,1000
						"/>
				</g>
			</g>
		</g>
		<g>
			<path class="st2" d="M500,951.5C251.1,951.5,48.5,748.9,48.5,500S251.1,48.5,500,48.5S951.5,251,951.5,500
				C951.5,748.9,748.9,951.5,500,951.5L500,951.5z M500,58.4C256.5,58.4,58.4,256.5,58.4,500S256.5,941.6,500,941.6
				S941.6,743.5,941.6,500S743.5,58.4,500,58.4L500,58.4z"/>
		</g>
	</g>
	<g>
		<g>
			<g>
				<path class="st2" d="M309.9,319.3l1,86c0,18.1,2.5,25.5,14.2,39.4v0.4h-35.3v-0.4c10.1-14,12.3-21.4,12.3-39.4v-84.2
					c-1.7-11.7-6-17.9-16.2-25.9v-0.4h32.4L405,409.2l-0.6-74.5c-0.2-18.1-2.7-25.5-12.7-39.4v-0.4h33.5v0.4
					c-9.9,14-12.3,21.4-12.3,39.4v110.5l-8.6,0.6L309.9,319.3z"/>
			</g>
			<g>
				<path class="st2" d="M445.7,444.8c5.3-12.1,8.2-19.9,8.2-33.3v-83c0-13.6-2.9-21.2-8.2-33.3v-0.4h93.8l8,35.9l-3.5,1.6
					c-10.1-10.9-21.4-28.7-29.4-29.2l-39-1.2v63.3H496c8.4,0,16.8-13.4,21.6-21.2h3.7v49.9h-3.7c-4.7-7.2-13.1-20.5-22-20.5h-19.9
					V438l40.9-1.4c15.4-0.4,27.7-18.7,38.8-34.7l3.5,1.7l-9,41.7H445.7V444.8z"/>
			</g>
			<g>
				<path class="st2" d="M584.9,396.3v-65.5c0-16.4-1.4-23.2-8.4-35.5v-0.4h38.4v0.4c-5.8,10.5-8.2,19.1-8.2,35.5v64.9
					c0,32.2,16.2,43.7,37.8,43.7c30,0,39.8-21.8,39.8-45.6v-59.1c0-18.1-2.7-25.5-14.8-39.4v-0.4h36.6l1,0.4
					c-11.5,14-14.2,21.4-14.2,39.4v58.9c0,29.4-12.7,54.6-52,54.6C610.6,448.3,584.9,433.3,584.9,396.3z"/>
			</g>
		</g>
		<g>
			<g>
				<path class="st2" d="M292.9,697.8l46.3-60c10.4-13,13-18.8,13-28.5c0-13.2-7.7-21.4-20.5-21.4c-12.1,0-20.3,9.5-22.1,23
					l-14.1-2.7c1.7-19.7,16.3-34,36.4-34c21,0,35.7,13,35.7,35.1c0,11.7-5.5,22.1-14.1,33.1l-36.6,47.4h53.6v13.9H293L292.9,697.8
					L292.9,697.8z"/>
			</g>
			<g>
				<path class="st2" d="M387.1,639.7c0-39.7,15.4-65.5,45.2-65.5c29.8,0,45,25.8,45,65.5s-15.2,65.4-45,65.4
					C402.5,705.1,387.1,679.4,387.1,639.7z M462.1,639.7c0-31.1-10.4-51.7-29.8-51.7c-19.6,0-29.8,20.7-29.8,51.7
					c0,31.1,10.2,51.5,29.8,51.5C451.6,691.2,462.1,670.8,462.1,639.7z"/>
			</g>
			<g>
				<path class="st2" d="M546.8,611.5H562v17.7c6-11.5,15.4-19.2,28.3-19.2c13.2,0,22.1,6.8,25.2,19.9c6.2-11.7,17.4-19.9,29.4-19.9
					c17.9,0,26.5,10.4,26.5,29.6v64h-15V642c0-12.4-4-18.5-14.8-18.5c-13.7,0-25,15-25,41.1v38.9h-15v-61.6
					c0-12.4-3.8-18.5-14.8-18.5c-13.7,0-24.9,15.2-24.9,41.9v38.2h-15.2L546.8,611.5L546.8,611.5z"/>
			</g>
			<g>
				<path class="st2" d="M699,574.2h15.2v129.4H699V574.2z"/>
			</g>
		</g>
		<g>
			<rect x="285.9" y="507.1" class="st2" width="421.2" height="8.2"/>
		</g>
	</g>
</g>
</svg>
