<?xml version="1.0" encoding="utf-8"?>
<svg width="295px" height="47px" viewBox="0 0 295 47" version="1.1" xmlns:xlink="http://www.w3.org/1999/xlink" xmlns="http://www.w3.org/2000/svg">
  <g id="logo">
    <path d="M40.012 13.6595L32.4735 15.5924C30.4761 10.3735 26.8035 7.73178 21.3268 7.73178C17.6542 7.73178 14.5615 9.02041 12.1131 11.6621C9.72916 14.3038 8.50496 18.1053 8.50496 23.0665C8.50496 28.0277 9.72916 31.8292 12.1131 34.4709C14.5615 37.1125 17.6542 38.4012 21.3268 38.4012C26.8035 38.4012 30.4761 35.7595 32.4735 30.5405L40.012 32.4735C37.8857 41.1717 31.1204 46.133 21.3268 46.133C15.3347 46.133 10.309 44.0711 6.18542 40.012C2.06181 35.9528 0 30.2828 0 23.0665C0 15.8501 2.06181 10.1802 6.18542 6.12099C10.309 2.06181 15.3347 0 21.3268 0C31.1204 0 37.8857 4.96123 40.012 13.6595ZM228.391 45.5992L218.985 45.5992L218.985 45.477C221.611 42.6673 222.588 40.7738 224.726 34.91L237.37 0.338361L239.691 0.338361L252.396 35.2154C254.656 41.3235 255.755 43.0948 258.015 45.477L258.015 45.5992L246.898 45.5992L246.898 45.477C248.242 43.8889 249.036 40.5905 246.96 34.9711L244.944 29.3517L229.307 29.3517L227.841 33.4441C225.398 40.1019 226.803 43.6446 228.391 45.477L228.391 45.5992ZM47.3622 0.515452L63.8566 0.515452C71.7817 0.515452 76.7429 4.7035 76.7429 12.693C76.7429 16.3656 75.1321 19.5227 72.2971 21.0047Q79.0625 23.8074 79.0625 32.0225C79.0625 40.7207 73.4569 45.6175 64.1788 45.6175L47.3622 45.6175L47.3622 0.515452ZM86.3482 45.6175L100.459 45.6175C111.09 45.6175 121.463 38.7878 121.463 23.0665C121.463 7.34519 111.09 0.515452 100.459 0.515452L86.3482 0.515452L86.3482 45.6175ZM124.545 0.888087L135.845 0.888087L135.845 1.01025C134.196 2.96483 133.524 5.95778 135.601 11.5161L145.435 38.5749L154.719 13.0431C157.162 6.38535 156.124 3.20915 154.23 1.01025L154.23 0.888087L163.515 0.888087L163.515 1.01025C161.01 3.81996 159.972 5.71346 157.895 11.5772L145.19 46.1489L142.869 46.1489L130.104 11.2718C127.905 5.16374 126.805 3.3924 124.545 1.01025L124.545 0.888087ZM169.913 45.5992L169.974 45.477C172.112 42.1176 172.539 40.2851 172.539 35.8262L172.539 10.661C172.539 6.20211 172.112 4.36969 169.913 1.01025L169.913 0.888087L180.296 0.888087L180.296 1.01025C178.098 4.36969 177.67 6.20211 177.67 10.661L177.67 35.8262C177.67 40.2851 178.159 42.1176 180.296 45.477L180.296 45.5992L169.913 45.5992ZM210.644 45.5992L210.644 45.477C208.69 42.3619 208.201 40.6516 208.201 36.437L208.201 3.02591L216.019 3.27023C218.279 3.33132 221.822 9.43939 224.571 13.4096L225.487 13.1042L222.983 0.888087L188.411 0.888087L185.907 13.1042L186.823 13.4096C189.449 9.43939 193.236 3.33132 195.374 3.27023L203.131 3.02591L203.131 36.437C203.131 40.5905 202.704 42.3619 200.688 45.477L200.688 45.5992L210.644 45.5992ZM270.894 10.661L270.894 43.6446L282.377 43.217C286.714 43.0338 289.951 39.0024 293.188 33.5663L294.105 33.9327L291.173 45.5992L262.953 45.5992L262.953 45.477C265.336 41.69 265.824 39.6132 265.824 34.6046L265.824 10.661C265.824 6.20211 265.336 4.36969 263.198 1.01025L263.198 0.888087L273.581 0.888087L273.581 1.01025C271.383 4.36969 270.894 6.20211 270.894 10.661ZM237.126 7.91237L244.089 27.0917L230.162 27.0917L237.126 7.91237ZM55.7382 8.24723L63.2123 8.24723C66.8849 8.24723 68.689 9.60029 68.689 13.144C68.689 16.6878 66.9493 18.0408 63.4056 18.0408L55.7382 18.0408L55.7382 8.24723ZM94.7243 37.8857L97.817 37.8857C101.747 37.8857 104.969 37.0481 107.997 34.9863C111.09 32.9245 112.958 28.8009 112.958 23.0665C112.958 17.3321 111.09 13.2085 107.997 11.1467C104.969 9.08484 101.747 8.24723 97.817 8.24723L94.7243 8.24723L94.7243 37.8857ZM63.4056 25.7726L55.7382 25.7726L55.7382 37.8857L63.4056 37.8857C68.238 37.8857 70.6864 35.8883 70.6864 31.8292C70.6864 27.77 68.238 25.7726 63.4056 25.7726Z" id="Combined-Shape" fill="#fff" fill-rule="evenodd" stroke="none" />
  </g>
</svg>