<?xml version="1.0" encoding="utf-8"?>
<!-- Generator: Adobe Illustrator 22.0.1, SVG Export Plug-In . SVG Version: 6.00 Build 0)  -->
<svg version="1.1" id="Capa_1" xmlns="http://www.w3.org/2000/svg" xmlns:xlink="http://www.w3.org/1999/xlink" x="0px" y="0px"
	 viewBox="0 0 22 22" style="enable-background:new 0 0 22 22;" xml:space="preserve">
<style type="text/css">
	.st0{fill:#FFFFFF;}
</style>
<g>
	<path class="st0" d="M20.3,22H18c0-3.8-3.2-6.8-7-6.8S4,18.2,4,22H1.7c0-5,4.2-9,9.3-9C16.1,13,20.3,17,20.3,22z"/>
	<path class="st0" d="M11,12.2c-3.4,0-6.1-2.7-6.1-6.1C4.9,2.7,7.6,0,11,0c3.4,0,6.1,2.7,6.1,6.1S14.4,12.2,11,12.2z M11,2.2
		C8.9,2.2,7.1,4,7.1,6.1S8.9,10,11,10c2.1,0,3.9-1.7,3.9-3.9S13.1,2.2,11,2.2z"/>
</g>
</svg>
